<?xml version="1.0" standalone="no"?>
<!DOCTYPE svg PUBLIC "-//W3C//DTD SVG 1.1//EN" "http://www.w3.org/Graphics/SVG/1.1/DTD/svg11.dtd" >
<svg xmlns="http://www.w3.org/2000/svg">
<metadata></metadata>
<defs>
<font id="ageregular" horiz-adv-x="1288" >
<font-face units-per-em="2048" ascent="1536" descent="-512" />
<missing-glyph horiz-adv-x="487" />
<glyph horiz-adv-x="0" />
<glyph horiz-adv-x="682" />
<glyph unicode=" "  horiz-adv-x="487" />
<glyph unicode="&#x09;" horiz-adv-x="487" />
<glyph unicode="&#xa0;" horiz-adv-x="487" />
<glyph unicode="!" horiz-adv-x="462" d="M41 -2h381v281h-381v-281zM41 328v1106h381v-1106h-381z" />
<glyph unicode="&#x22;" horiz-adv-x="835" d="M39 1061v377h344v-377h-344zM449 1061v377h344v-377h-344z" />
<glyph unicode="'" horiz-adv-x="419" d="M39 1061v377h344v-377h-344z" />
<glyph unicode="," horiz-adv-x="448" d="M-27 -387l2 315q74 0 74 64v317h357v-319q0 -76 -13 -137t-43 -115.5t-79.5 -85t-123.5 -44.5t-174 5z" />
<glyph unicode="-" horiz-adv-x="552" d="M41 475v338h473v-338h-473z" />
<glyph unicode="." horiz-adv-x="460" d="M39 -2v309h381v-309h-381z" />
<glyph unicode="0" horiz-adv-x="1284" d="M39 434v565q0 180 127 308.5t307 128.5h336q180 0 308 -128.5t128 -308.5v-565q0 -180 -128 -307t-308 -127h-336q-180 0 -307 127t-127 307zM408 653l241 418h-180q-26 0 -43.5 -17.5t-17.5 -43.5v-357zM635 352h184q26 0 44 19t18 45v364z" />
<glyph unicode="1" horiz-adv-x="659" d="M35 1061v375h149q180 0 307 -128.5t127 -308.5v-999h-374v999q0 25 -17.5 43.5t-42.5 18.5h-149z" />
<glyph unicode="2" horiz-adv-x="999" d="M29 1061v375h401q127 0 222.5 -62t129.5 -165.5t-4 -239.5q-29 -94 -87.5 -293.5t-90.5 -302.5h369v-373h-740q-62 0 -83 31t-9 92q50 166 145.5 466t125.5 396q8 30 -5 53t-45 23h-329z" />
<glyph unicode="3" horiz-adv-x="1054" d="M41 0v375h534q30 0 47 26t17 57t-17 57t-47 26h-534v368h526q28 0 44.5 25.5t16.5 56.5t-16.5 56.5t-44.5 25.5h-526v363h526q102 0 186.5 -41t135.5 -105t78 -144.5t24 -158.5t-37.5 -147.5t-97.5 -110.5q45 -22 81 -66t57.5 -99t28 -118.5t-2.5 -126t-39.5 -120.5 t-78 -102t-122.5 -70.5t-168 -26.5h-571z" />
<glyph unicode="4" horiz-adv-x="1155" d="M61.5 636q-41.5 104 1.5 251l170 549h383l-174 -568q-6 -31 10 -53t46 -22h243v643h373v-1436h-373v418h-288q-142 0 -246 57t-145.5 161z" />
<glyph unicode="5" horiz-adv-x="1058" d="M41 0v375h549q25 0 42 17t17 42v117q0 25 -17 42t-42 17h-549v826h948v-367h-618v-84h219q191 0 312.5 -121t121.5 -313v-117q0 -180 -127 -307t-307 -127h-549z" />
<glyph unicode="6" horiz-adv-x="1216" d="M41 434v567q0 180 127 307.5t307 127.5h670v-375h-670q-25 0 -42 -17.5t-17 -42.5v-567q0 -25 17 -42t42 -17h270q25 0 42.5 17t17.5 42v109q0 25 -17.5 42t-42.5 17h-270v375h270q180 0 307.5 -127t127.5 -307v-109q0 -180 -127.5 -307t-307.5 -127h-270 q-180 0 -307 127t-127 307z" />
<glyph unicode="7" horiz-adv-x="950" d="M35 1061v375h497q141 0 240 -60.5t131.5 -165t-8.5 -243.5l-309 -967h-391l315 985q9 30 -7 53t-48 23h-420z" />
<glyph unicode="8" horiz-adv-x="1179" d="M22 446q6 64 27.5 119t57.5 98.5t81 65.5q-62 41 -96 110.5t-37.5 147.5t23.5 158.5t78 144.5t135 105t186 41h228q102 0 186 -41t135 -105t78 -144.5t24 -158.5t-37.5 -147.5t-97.5 -110.5q45 -22 81 -65.5t57.5 -98.5t28 -119t-2.5 -126.5t-39.5 -120.5t-77.5 -102 t-122 -70.5t-168 -26.5h-82h-154h-82q-93 0 -168 26.5t-122 70.5t-77.5 102t-39.5 120.5t-3 126.5zM394.5 494q-4.5 -28 0.5 -55.5t25 -46t49 -17.5h244q52 0 72.5 47t-1 94t-71.5 47h-244q-30 -1 -50 -21t-24.5 -48zM410 985q0 -33 18 -60.5t49 -27.5h228q27 -1 45.5 17 t23 43.5t0 51.5t-23 44.5t-45.5 19.5h-228q-31 0 -49 -27.5t-18 -60.5z" />
<glyph unicode="9" horiz-adv-x="1212" d="M33 891v110q0 180 127 307.5t307 127.5h270q180 0 307 -127.5t127 -307.5v-567q0 -180 -127 -307t-307 -127h-667v375h667q25 0 42.5 17t17.5 42v567q0 25 -17.5 42.5t-42.5 17.5h-270q-25 0 -42 -17.5t-17 -42.5v-110q0 -25 17 -42.5t42 -17.5h270v-374h-270 q-180 0 -307 127t-127 307z" />
<glyph unicode=":" horiz-adv-x="460" d="M39 -2v309h381v-309h-381zM39 692v309h381v-309h-381z" />
<glyph unicode=";" horiz-adv-x="458" d="M-25 -387l2 315q36 0 54 14.5t18 49.5v317h363v-319q0 -95 -21 -165.5t-69.5 -124t-135.5 -76t-211 -11.5zM39 692v309h381v-309h-381z" />
<glyph unicode="?" horiz-adv-x="976" d="M35 1059v375h536q104 0 186.5 -39t126.5 -106.5t47.5 -158.5t-50.5 -196q-40 -79 -110.5 -191.5t-97 -179t-26.5 -151.5v-84h-368v88q1 85 21.5 155t48 115t76 129t85.5 168q13 28 1.5 52t-42.5 24h-434zM270 -2h381v281h-381v-281z" />
<glyph unicode="@" horiz-adv-x="1024" />
<glyph unicode="A" d="M41 0v1001q0 180 127 307.5t307 127.5h338q180 0 307 -127.5t127 -307.5v-1001h-375v1001q0 25 -17 42.5t-42 17.5h-338q-25 0 -42 -17.5t-17 -42.5v-210h397v-375h-397v-416h-375z" />
<glyph unicode="B" horiz-adv-x="1269" d="M41 0v1001q0 120 49.5 219t142 157.5t209.5 58.5h312q92 0 172 -35.5t133.5 -92.5t86.5 -132q32 -74 38 -149q1 -14 2 -29q0 -60 -19 -120q-23 -74 -75 -128q63 -40 102.5 -112t49.5 -154q3 -25 3 -51q0 -59 -16 -119q-23 -86 -73.5 -155.5t-143 -114t-211.5 -44.5h-762z M414 375h368q33 0 56 16q22 17 28 39q3 11 2.5 22.5t-2.5 22.5q-6 23 -29 39t-57 16h-305v375h270q37 0 57 25.5t19.5 55.5t-21 55.5t-55.5 25.5h-270q-25 0 -43 -17t-18 -42v-478v-155z" />
<glyph unicode="C" horiz-adv-x="1099" d="M43 434v567q0 180 127 307.5t307 127.5h584v-375h-584q-25 0 -42 -17.5t-17 -42.5v-567q0 -25 17 -42t42 -17h584v-375h-584q-180 0 -307 127t-127 307z" />
<glyph unicode="D" horiz-adv-x="1286" d="M41 0v1436h770q180 0 307 -127.5t127 -307.5v-567q0 -180 -127 -307t-307 -127h-770zM416 375h395q25 0 42 17t17 42v567q0 25 -17 42.5t-42 17.5h-395v-686z" />
<glyph unicode="E" horiz-adv-x="1097" d="M41 434v567q0 180 127 307.5t307 127.5h584v-375h-584q-25 0 -42 -17.5t-17 -42.5v-96h643v-375h-643v-96q0 -25 17 -42t42 -17h584v-375h-584q-180 0 -307 127t-127 307z" />
<glyph unicode="F" horiz-adv-x="1032" d="M41 0v1001q0 180 127 307.5t307 127.5h526v-375h-526q-25 0 -42 -17.5t-17 -42.5v-96h585v-375h-585v-530h-375z" />
<glyph unicode="G" horiz-adv-x="1232" d="M41 434v565q0 180 128 307.5t308 127.5h715v-375h-715q-25 0 -43 -17.5t-18 -42.5v-565q0 -25 18 -42t43 -17h340v332h375v-707h-715q-180 0 -308 127t-128 307z" />
<glyph unicode="H" d="M41 -2v1436h375v-531h397v-375h-397v-530h-375zM872 -2v1436h375v-1436h-375z" />
<glyph unicode="I" horiz-adv-x="460" d="M45 0v1434h375v-1434h-375z" />
<glyph unicode="J" horiz-adv-x="1138" d="M31 434v121h375v-121q0 -25 17.5 -42t43.5 -17h199q25 0 42 17t17 42v1000h375v-1000q0 -180 -127 -307t-307 -127h-199q-181 0 -308.5 127t-127.5 307z" />
<glyph unicode="K" horiz-adv-x="1267" d="M43 0v1434h375v-1434h-375zM477 539v374h172q19 0 34.5 11t21.5 30l149 480h391l-174 -564q-32 -102 -110 -143q82 -46 110 -145l178 -582h-391l-153 498q-6 19 -21.5 30t-34.5 11h-172z" />
<glyph unicode="L" horiz-adv-x="978" d="M41 434v1000h375v-1000q0 -25 17 -42t42 -17h473v-375h-473q-180 0 -307 127t-127 307z" />
<glyph unicode="M" horiz-adv-x="1748" d="M41 0v1104q0 82 30.5 150t81 112t115.5 70t134 30q12 1 24 1q57 0 112 -16q67 -19 121.5 -57.5t92 -104t45.5 -148.5l67 -690h8h11l67 690q8 83 45 148.5t91.5 104t121.5 57.5q55 16 112 16q12 0 24 -1q69 -4 134 -30t116 -70t81.5 -112t30.5 -150v-1104h-375v924l8 237 l-18 2l-33 -231l-61 -465q-13 -105 -67.5 -181t-128 -110.5t-158 -34.5t-158.5 34.5t-128.5 110.5t-68.5 181l-59 465l-35 231l-18 -2l10 -237v-924h-375z" />
<glyph unicode="N" horiz-adv-x="1351" d="M41 0v1104q0 91 31 164t81.5 116t116.5 65q58 19 117 19h17q68 -3 136 -29.5t122 -74.5q93 -81 129 -250q19 -95 57 -301t57 -301l33 -233l18 2l-20 270v885h375v-1098q0 -91 -31 -163.5t-81.5 -115.5t-116.5 -65q-58 -19 -118 -19h-16q-68 3 -137 29.5t-123 73.5 q-95 86 -127 250q-20 97 -57.5 302.5t-57.5 301.5l-32 231l-21 -2l23 -237v-924h-375z" />
<glyph unicode="O" d="M41 434v565q0 180 127 307.5t307 127.5h338q180 0 307 -127.5t127 -307.5v-565q0 -180 -127 -307t-307 -127h-338q-180 0 -307 127t-127 307zM416 434q0 -25 17 -42t42 -17h338q25 0 42 17t17 42v565q0 25 -17 42.5t-42 17.5h-338q-25 0 -42 -17.5t-17 -42.5v-565z" />
<glyph unicode="P" horiz-adv-x="1286" d="M43 0v1001q0 180 127 307.5t307 127.5h336q180 0 307 -127.5t127 -307.5v-335q0 -180 -127 -307.5t-307 -127.5h-336v375h336q25 0 42 17.5t17 42.5v335q0 25 -17 42.5t-42 17.5h-336q-25 0 -42 -17.5t-17 -42.5v-1001h-375z" />
<glyph unicode="Q" d="M41 432v567q0 180 127 307.5t307 127.5h338q180 0 307 -127.5t127 -307.5v-667l-375 49v618q0 25 -17 42.5t-42 17.5h-338q-25 0 -42 -17.5t-17 -42.5v-567q0 -24 16.5 -40t42.5 -19l770 -94v-359l-790 82q-182 19 -298 136t-116 294z" />
<glyph unicode="R" horiz-adv-x="1300" d="M41 0v1001q0 180 128 307.5t308 127.5h336q118 0 221 -58t164.5 -158.5t61.5 -218.5v-223q0 -179 -150 -266q57 -17 84 -61.5t39 -114.5l53 -336h-405l-58 307q-12 34 -49 37h-176h-121v375h348q25 0 42.5 17t17.5 42v223q0 25 -17.5 42.5t-42.5 17.5h-348 q-25 0 -43 -17.5t-18 -42.5v-1001h-375z" />
<glyph unicode="S" horiz-adv-x="1024" d="M33 0v375h317q32 0 48.5 23t7.5 53l-160 516q-18 57 -18 110q0 41 10 77q24 86 83.5 148.5t146.5 98t183 35.5h350v-375h-315q-31 0 -47.5 -23.5t-7.5 -52.5l162 -516q17 -56 17 -108q0 -39 -10 -77q-24 -86 -84 -149t-147 -99t-182 -36h-354z" />
<glyph unicode="T" horiz-adv-x="1042" d="M27 1071v363h987v-363h-305v-1071h-375v1071h-307z" />
<glyph unicode="U" horiz-adv-x="1286" d="M41 434v1000h375v-1000q0 -25 17 -42t42 -17h336q25 0 42 17t17 42v1000h375v-1000q0 -180 -127 -307t-307 -127h-336q-180 0 -307 127t-127 307z" />
<glyph unicode="V" horiz-adv-x="1310" d="M41 432v1002h375v-1002q0 -25 17 -42t42 -17h70q44 0 57 41l309 1020h389l-331 -1096q-44 -148 -158.5 -244t-265.5 -96h-70q-180 0 -307 127t-127 307z" />
<glyph unicode="W" horiz-adv-x="2037" d="M41 432v1002h375v-1002q0 -25 17 -42t42 -17h297q25 0 42 17t17 42v1002h375v-1002q0 -25 17.5 -42t42.5 -17h297q25 0 42 17t17 42v1002h375v-1002q0 -180 -127 -307t-307 -127h-297q-69 0 -139 39t-107 96q-39 -58 -109.5 -96.5t-138.5 -38.5h-297q-180 0 -307 127 t-127 307z" />
<glyph unicode="X" d="M20 0l179 582q28 97 110 143q-82 46 -110 143l-172 566h389l149 -480q6 -19 21.5 -31t34.5 -12h47q20 0 35 12t20 31l149 480h390l-172 -566q-28 -96 -111 -143q83 -47 111 -143l178 -582h-389l-156 496q-4 19 -19.5 30t-35.5 11h-47q-20 0 -36 -11t-20 -30l-153 -496 h-392z" />
<glyph unicode="Y" horiz-adv-x="1282" d="M23 1434h391l149 -529q9 -27 31 -44t46 -20t47 13.5t34 50.5l147 529h392l-173 -613q-62 -223 -258 -309v-512h-374v516q-91 40 -159 117.5t-99 187.5z" />
<glyph unicode="Z" horiz-adv-x="1081" d="M33 1059v375h760q73 0 101 -26q17 -17 17 -51q0 -20 -6 -46l-284 -936h432v-375h-799q-95 0 -95 82q0 18 5 41l282 936h-413z" />
<glyph unicode="`" horiz-adv-x="602" d="M37 1599h457l90 -184h-398z" />
<glyph unicode="a" d="M41 434v338q0 180 127 307t307 127h338q180 0 307 -127t127 -307v-772h-375v772q0 25 -17 42t-42 17h-338q-25 0 -42 -17t-17 -42v-338q0 -25 17 -42t42 -17h338v-375h-338q-180 0 -307 127t-127 307z" />
<glyph unicode="b" horiz-adv-x="1286" d="M41 434v1002h375v-1002q0 -25 17 -42t42 -17h336q25 0 42 17t17 42v338q0 25 -17 42t-42 17h-336v375h336q180 0 307 -127t127 -307v-338q0 -180 -127 -307t-307 -127h-336q-180 0 -307 127t-127 307z" />
<glyph unicode="c" horiz-adv-x="1103" d="M41 434v338q0 180 127.5 307t308.5 127h584v-375h-584q-26 0 -43.5 -17t-17.5 -42v-338q0 -25 17.5 -42t43.5 -17h584v-375h-584q-181 0 -308.5 127t-127.5 307z" />
<glyph unicode="d" d="M41 434v338q0 180 127 307t307 127h338v-375h-338q-25 0 -42 -17t-17 -42v-338q0 -25 17 -42t42 -17h338q25 0 42 17t17 42v1002h375v-1002q0 -180 -127 -307t-307 -127h-338q-180 0 -307 127t-127 307z" />
<glyph unicode="e" horiz-adv-x="1273" d="M41 434v338q0 180 127 307t307 127h336q100 0 190 -37.5t151.5 -105.5t83.5 -163q9 -37 9 -76q0 -63 -22 -134l-82 -258h-375l100 324q9 31 -7 53t-48 22h-336q-25 0 -42 -17t-17 -42v-338q0 -25 17 -42t42 -17h766v-375h-766q-180 0 -307 127t-127 307z" />
<glyph unicode="f" horiz-adv-x="739" d="M41 0v1001q0 180 127 307.5t307 127.5h234v-375h-248q-27 0 -36 -14t-9 -43h293v-375h-293v-629h-375z" />
<glyph unicode="g" horiz-adv-x="1284" d="M39 651v121q0 180 127 307t307 127h780v-215l-94 -18q84 -67 84 -201v-121q0 -181 -115 -298t-294 -117h-320q-20 0 -28.5 -17t0 -34t28.5 -17h320q181 0 295 -109t114 -288h-375q0 45 -49 45h-356q-101 0 -182.5 26t-132.5 68.5t-79 99.5q-29 58 -29 119q0 59 27 119 q27 62 80 114q-108 124 -108 289zM414 641q0 -25 17 -42t42 -17h336q25 0 42 17t17 42v131q0 25 -17 42t-42 17h-336q-25 0 -42 -17t-17 -42v-131z" />
<glyph unicode="h" d="M41 0v1434h375v-228h395q180 0 308 -127t128 -307v-772h-375v772q0 25 -18 42t-43 17h-395v-831h-375z" />
<glyph unicode="i" horiz-adv-x="456" d="M41 0v1155h375v-1155h-375zM41 1206v228h381v-228h-381z" />
<glyph unicode="j" horiz-adv-x="546" d="M25 145h53q51 0 51 58v952h375v-950q0 -194 -110 -314t-316 -120h-53v374zM125 1206v228h381v-228h-381z" />
<glyph unicode="k" horiz-adv-x="1269" d="M41 0v1434h375v-635h272q20 0 35.5 11.5t21.5 29.5l113 366h391l-137 -450q-32 -100 -111 -144q80 -45 111 -143l143 -469h-391l-119 383q-13 41 -57 41h-272v-424h-375z" />
<glyph unicode="l" horiz-adv-x="561" d="M39 1434h375q0 -167 1 -501t1 -501q0 -25 17 -42t42 -17h60v-375h-60q-180 0 -307 127t-127 307q0 168 -1 501.5t-1 500.5z" />
<glyph unicode="m" horiz-adv-x="2037" d="M41 0v772q0 180 128 307t308 127h295q68 0 138.5 -38.5t109.5 -96.5q37 57 108 96t138 39h297q180 0 307 -127t127 -307v-772h-375v772q0 25 -17 42t-42 17h-297q-25 0 -42.5 -17t-17.5 -42v-772h-375v772q0 25 -17 42t-42 17h-295q-25 0 -43 -17t-18 -42v-772h-375z" />
<glyph unicode="n" horiz-adv-x="1286" d="M41 0v772q0 180 127 307t307 127h336q180 0 307 -127t127 -307v-772h-375v772q0 25 -17 42t-42 17h-336q-25 0 -42 -17t-17 -42v-772h-375z" />
<glyph unicode="o" d="M41 434v338q0 180 128 307t308 127h336q180 0 307 -127t127 -307v-338q0 -180 -127 -307t-307 -127h-336q-180 0 -308 127t-128 307zM416 434q0 -25 18 -42t43 -17h336q25 0 42 17t17 42v338q0 25 -17 42t-42 17h-336q-25 0 -43 -17t-18 -42v-338z" />
<glyph unicode="p" horiz-adv-x="1286" d="M41 -229v1001q0 180 127 307t307 127h338q180 0 307 -127t127 -307v-338q0 -180 -127 -307t-307 -127h-338v375h338q25 0 42 17t17 42v338q0 25 -17 42t-42 17h-338q-25 0 -42 -17t-17 -42v-1001h-375z" />
<glyph unicode="q" horiz-adv-x="1286" d="M39 434v338q0 180 127.5 307t308.5 127h336q180 0 307 -127t127 -307v-1001h-375v1001q0 25 -17 42t-42 17h-336q-26 0 -43.5 -17t-17.5 -42v-338q0 -25 17.5 -42t43.5 -17h336v-375h-336q-181 0 -308.5 127t-127.5 307z" />
<glyph unicode="r" horiz-adv-x="729" d="M41 0v772q0 180 127 307t307 127h234v-375h-234q-25 0 -42 -17t-17 -42v-772h-375z" />
<glyph unicode="s" horiz-adv-x="970" d="M31 0v375h258q30 0 45.5 23t9.5 53l-88 286q-17 56 -17 108q0 39 10 77q24 86 83.5 149t146.5 99t183 36h278v-375h-248q-32 0 -49 -23t-8 -52l88 -287q17 -56 17 -108q0 -39 -10 -77q-24 -86 -83.5 -149t-146.5 -99t-183 -36h-286z" />
<glyph unicode="t" horiz-adv-x="743" d="M41 434v1000h375v-228h291v-366h-291v-408q0 -57 47 -57h244v-375h-232q-118 0 -218 58.5t-158 158.5t-58 217z" />
<glyph unicode="u" horiz-adv-x="1286" d="M41 434v772h375v-772q0 -25 17 -42t42 -17h336q25 0 42 17t17 42v772h375v-772q0 -180 -127 -307t-307 -127h-336q-180 0 -307 127t-127 307z" />
<glyph unicode="v" horiz-adv-x="1292" d="M41 434v772h375v-772q0 -25 17 -42t42 -17h115q42 0 55 41l242 790h389l-262 -866q-44 -148 -158.5 -244t-265.5 -96h-115q-180 0 -307 127t-127 307z" />
<glyph unicode="w" horiz-adv-x="2035" d="M41 434v772h373v-772q0 -25 18 -42t43 -17h295q25 0 42 17t17 42v772h375v-772q0 -25 18 -42t44 -17h295q25 0 42 17t17 42v772h375v-772q0 -180 -127 -307t-307 -127h-295q-69 0 -140 38.5t-108 96.5q-37 -58 -108 -96.5t-140 -38.5h-295q-180 0 -307 127t-127 307z" />
<glyph unicode="x" horiz-adv-x="1257" d="M16 0l144 467q29 101 108 145q-79 41 -108 144l-140 450h392l112 -366q6 -19 22 -30t36 -11h94q20 0 35.5 11t19.5 30l115 366h389l-137 -450q-29 -101 -111 -144q83 -46 111 -145l143 -467h-391l-119 383q-5 18 -20 29.5t-35 11.5h-96q-18 0 -34 -11.5t-22 -29.5 l-118 -383h-390z" />
<glyph unicode="y" horiz-adv-x="1314" d="M16 1206h390l241 -790q6 -19 21 -30t34 -11h177v831h374v-1435h-374v233q-40 -4 -62 -4h-115q-150 0 -264.5 96t-158.5 244z" />
<glyph unicode="z" horiz-adv-x="983" d="M27 831v375h669q74 0 102 -28q18 -17 17 -51q0 -20 -6 -46l-213 -706h356v-375h-702q-97 0 -97 83q0 18 5 40l213 708h-344z" />
<glyph unicode="&#xa1;" horiz-adv-x="475" d="M47 -233v1105h381v-1105h-381zM47 922v280h381v-280h-381z" />
<glyph unicode="&#xa2;" horiz-adv-x="1103" d="M41 434v338q0 180 127.5 307t308.5 127h10v94h392v-94h182v-375h-584q-26 0 -43.5 -17t-17.5 -42v-338q0 -25 17.5 -42t43.5 -17h584v-375h-182v-88h-392v88h-10q-181 0 -308.5 127t-127.5 307z" />
<glyph unicode="&#xa5;" horiz-adv-x="1282" d="M20 1434h392l149 -467q9 -27 31 -44t46 -20t47 13.5t34 50.5l147 467h391l-172 -551q-51 -181 -190 -273h88v-225h-156v-45h156v-215h-156v-125h-374v125h-144v215h144v45h-144v225h82q-131 84 -196 273z" />
<glyph unicode="&#xa8;" horiz-adv-x="923" d="M41 1276v182h397v-182h-397zM487 1276v182h398v-182h-398z" />
<glyph unicode="&#xad;" horiz-adv-x="552" d="M41 475v338h473v-338h-473z" />
<glyph unicode="&#xb4;" horiz-adv-x="614" d="M37 1417l90 185h457l-150 -185h-397z" />
<glyph unicode="&#xb8;" horiz-adv-x="446" d="M10 -340l41 115q38 -34 67 -19q21 10 14 31q-10 28 -66 25l77 186h232l-53 -131q131 -44 102 -162q-14 -55 -66.5 -92t-115.5 -46t-128.5 14.5t-103.5 78.5z" />
<glyph unicode="&#xbf;" horiz-adv-x="989" d="M43.5 70q-3.5 91 50.5 196q40 79 110.5 191.5t97 179t26.5 151.5v84h368v-88q-1 -85 -21.5 -155t-48 -115t-76 -129t-85.5 -168q-13 -28 -1.5 -52t42.5 -24h434v-374h-537q-104 0 -186.5 38.5t-126 106t-47 158.5zM324 922v280h381v-280h-381z" />
<glyph unicode="&#xc0;" d="M41 0v1001q0 180 127 307.5t307 127.5h338q180 0 307 -127.5t127 -307.5v-1001h-375v1001q0 25 -17 42.5t-42 17.5h-338q-25 0 -42 -17.5t-17 -42.5v-210h397v-375h-397v-416h-375zM285 1681h456l90 -184h-397z" />
<glyph unicode="&#xc1;" d="M41 0v1001q0 180 127 307.5t307 127.5h338q180 0 307 -127.5t127 -307.5v-1001h-375v1001q0 25 -17 42.5t-42 17.5h-338q-25 0 -42 -17.5t-17 -42.5v-210h397v-375h-397v-416h-375zM446 1495l91 184h456l-149 -184h-398z" />
<glyph unicode="&#xc2;" d="M41 0v1001q0 180 127 307.5t307 127.5h338q180 0 307 -127.5t127 -307.5v-1001h-375v1001q0 25 -17 42.5t-42 17.5h-338q-25 0 -42 -17.5t-17 -42.5v-210h397v-375h-397v-416h-375zM203 1487l119 149q30 35 86 35h483q52 0 82 -35l119 -149h-396l-49 65h-12l-51 -65h-381 z" />
<glyph unicode="&#xc3;" d="M41 0v1001q0 180 127 307.5t307 127.5h338q180 0 307 -127.5t127 -307.5v-1001h-375v1001q0 25 -17 42.5t-42 17.5h-338q-25 0 -42 -17.5t-17 -42.5v-210h397v-375h-397v-416h-375zM258 1612q79 55 156 73.5t139 9.5t120.5 -21.5t120.5 -10.5t117 33h27l82 -94 q-68 -62 -134 -89.5t-116 -25t-103.5 13t-97 23t-97 6t-103.5 -38.5h-19z" />
<glyph unicode="&#xc4;" d="M41 0v1001q0 180 127 307.5t307 127.5h338q180 0 307 -127.5t127 -307.5v-1001h-375v1001q0 25 -17 42.5t-42 17.5h-338q-25 0 -42 -17.5t-17 -42.5v-210h397v-375h-397v-416h-375zM221 1487v182h397v-182h-397zM668 1487v182h397v-182h-397z" />
<glyph unicode="&#xc5;" d="M41 0v1001q0 180 127 307.5t307 127.5h338q180 0 307 -127.5t127 -307.5v-1001h-375v1001q0 25 -17 42.5t-42 17.5h-338q-25 0 -42 -17.5t-17 -42.5v-210h397v-375h-397v-416h-375zM361.5 1637q23.5 46 84.5 46h396q45 0 70 -28.5t24.5 -63.5t-25.5 -63.5t-69 -28.5h-396 q-58 0 -83 46t-1.5 92zM516 1590.5q0 -13.5 12 -13.5h230q13 0 12.5 13.5t-12.5 13.5h-230q-12 0 -12 -13.5z" />
<glyph unicode="&#xc6;" horiz-adv-x="1929" d="M41 0v1001q0 180 127 307.5t307 127.5h338q72 0 138.5 -30.5t107.5 -88.5q36 55 104 87t140 32h583v-375h-583q-23 0 -40 -15t-20 -38v-7v-96h643v-375h-643v-96q0 -25 17.5 -42t42.5 -17h583v-375h-583q-180 0 -305.5 127t-125.5 307v567q0 25 -17 42.5t-42 17.5h-338 q-25 0 -42 -17.5t-17 -42.5v-210h397v-375h-397v-416h-375z" />
<glyph unicode="&#xc7;" horiz-adv-x="1099" d="M43 434v567q0 180 127 307.5t307 127.5h584v-375h-584q-25 0 -42 -17.5t-17 -42.5v-567q0 -25 17 -42t42 -17h584v-375h-285l-10 -31q61 -21 87 -63t11 -103q-14 -55 -66 -91.5t-115 -44.5t-128.5 16t-103.5 79l41 115q38 -34 67 -19q21 10 14 31q-11 28 -67 25l39 86 h-68q-180 0 -307 127t-127 307z" />
<glyph unicode="&#xc8;" horiz-adv-x="1097" d="M41 434v567q0 180 127 307.5t307 127.5h584v-375h-584q-25 0 -42 -17.5t-17 -42.5v-96h643v-375h-643v-96q0 -25 17 -42t42 -17h584v-375h-584q-180 0 -307 127t-127 307zM348 1683h457l90 -184h-397z" />
<glyph unicode="&#xc9;" horiz-adv-x="1097" d="M41 434v567q0 180 127 307.5t307 127.5h584v-375h-584q-25 0 -42 -17.5t-17 -42.5v-96h643v-375h-643v-96q0 -25 17 -42t42 -17h584v-375h-584q-180 0 -307 127t-127 307zM514 1501l90 185h457l-150 -185h-397z" />
<glyph unicode="&#xca;" horiz-adv-x="1097" d="M41 434v567q0 180 127 307.5t307 127.5h584v-375h-584q-25 0 -42 -17.5t-17 -42.5v-96h643v-375h-643v-96q0 -25 17 -42t42 -17h584v-375h-584q-180 0 -307 127t-127 307zM227 1495l119 150q29 34 86 34h483q53 0 82 -34l119 -150h-395l-49 66h-13l-51 -66h-381z" />
<glyph unicode="&#xcb;" horiz-adv-x="1097" d="M41 434v567q0 180 127 307.5t307 127.5h584v-375h-584q-25 0 -42 -17.5t-17 -42.5v-96h643v-375h-643v-96q0 -25 17 -42t42 -17h584v-375h-584q-180 0 -307 127t-127 307zM238 1497v182h397v-182h-397zM684 1497v182h397v-182h-397z" />
<glyph unicode="&#xcc;" horiz-adv-x="460" d="M-115 1683h457l90 -184h-397zM45 0v1434h375v-1434h-375z" />
<glyph unicode="&#xcd;" horiz-adv-x="460" d="M41 1497l90 184h457l-150 -184h-397zM45 0v1434h375v-1434h-375z" />
<glyph unicode="&#xce;" horiz-adv-x="460" d="M-217 1499l119 150q29 34 86 34h483q53 0 82 -34l119 -150h-396l-49 66h-12l-51 -66h-381zM45 0v1434h375v-1434h-375z" />
<glyph unicode="&#xcf;" horiz-adv-x="460" d="M-182 1489v182h397v-182h-397zM45 0v1434h375v-1434h-375zM264 1489v182h398v-182h-398z" />
<glyph unicode="&#xd0;" horiz-adv-x="1361" d="M33 545v338h84v553h770q180 0 307 -127.5t127 -307.5v-567q0 -180 -127 -307t-307 -127h-770v502h375v-127h395q25 0 42 17t17 42v567q0 25 -17 42.5t-42 17.5h-395v-178h98v-338h-557z" />
<glyph unicode="&#xd1;" horiz-adv-x="1351" d="M41 0v1104q0 91 31 164t81.5 116t116 65t134 19t136.5 -29.5t122 -74.5q93 -81 129 -250q19 -95 57 -301t57 -301l33 -233l18 2l-20 270v885h375v-1098q0 -91 -31 -163.5t-81.5 -115.5t-116.5 -65t-134.5 -19t-137 29.5t-122.5 73.5q-95 86 -127 250q-20 97 -57.5 302.5 t-57.5 301.5l-32 231l-21 -2l23 -237v-924h-375zM340 1638q79 55 156 73.5t139 9.5t120.5 -21.5t120.5 -10.5t117 33h27l82 -94q-59 -53 -115.5 -81t-103 -31.5t-91 3t-86.5 18t-81.5 18.5t-84.5 -1t-89 -36h-19z" />
<glyph unicode="&#xd2;" d="M41 434v565q0 180 127 307.5t307 127.5h338q180 0 307 -127.5t127 -307.5v-565q0 -180 -127 -307t-307 -127h-338q-180 0 -307 127t-127 307zM295 1688h457l90 -185h-398zM416 434q0 -25 17 -42t42 -17h338q25 0 42 17t17 42v565q0 25 -17 42.5t-42 17.5h-338 q-25 0 -42 -17.5t-17 -42.5v-565z" />
<glyph unicode="&#xd3;" d="M41 434q0 -180 127 -307t307 -127h338q180 0 307 127t127 307v565q0 180 -127 307.5t-307 127.5h-338q-180 0 -307 -127.5t-127 -307.5v-565zM416 434v565q0 25 17 42.5t42 17.5h338q25 0 42 -17.5t17 -42.5v-565q0 -25 -17 -42t-42 -17h-338q-25 0 -42 17t-17 42z M438 1495l90 184h457l-149 -184h-398z" />
<glyph unicode="&#xd4;" d="M41 434q0 -180 127 -307t307 -127h338q180 0 307 127t127 307v565q0 180 -127 307.5t-307 127.5h-338q-180 0 -307 -127.5t-127 -307.5v-565zM207 1491l119 149q30 35 86 35h483q52 0 82 -35l119 -149h-396l-49 65h-12l-51 -65h-381zM416 434v565q0 25 17 42.5t42 17.5 h338q25 0 42 -17.5t17 -42.5v-565q0 -25 -17 -42t-42 -17h-338q-25 0 -42 17t-17 42z" />
<glyph unicode="&#xd5;" d="M41 434q0 -180 127 -307t307 -127h338q180 0 307 127t127 307v565q0 180 -127 307.5t-307 127.5h-338q-180 0 -307 -127.5t-127 -307.5v-565zM264 1608q79 55 156 73.5t139.5 9.5t120.5 -21.5t120.5 -10.5t117.5 33h26l82 -95q-59 -53 -115.5 -81t-103 -31.5t-91 3 t-86.5 18t-81.5 18.5t-84.5 -1t-89 -36h-19zM416 434v565q0 25 17 42.5t42 17.5h338q25 0 42 -17.5t17 -42.5v-565q0 -25 -17 -42t-42 -17h-338q-25 0 -42 17t-17 42z" />
<glyph unicode="&#xd6;" d="M41 434v565q0 180 127 307.5t307 127.5h338q180 0 307 -127.5t127 -307.5v-565q0 -180 -127 -307t-307 -127h-338q-180 0 -307 127t-127 307zM227 1489v182h398v-182h-398zM416 434q0 -25 17 -42t42 -17h338q25 0 42 17t17 42v565q0 25 -17 42.5t-42 17.5h-338 q-25 0 -42 -17.5t-17 -42.5v-565zM674 1489v182h397v-182h-397z" />
<glyph unicode="&#xd8;" d="M37 -63l110 210q-106 125 -106 287v565q0 180 127 307.5t307 127.5h307l33 61h440l-112 -213q104 -120 104 -283v-565q0 -180 -127 -307t-307 -127h-313l-33 -63h-430zM416 434q0 -25 17 -42t42 -17h338q25 0 42 17t17 42v565q0 25 -17 42.5t-42 17.5h-338 q-25 0 -42 -17.5t-17 -42.5v-565z" />
<glyph unicode="&#xd9;" horiz-adv-x="1286" d="M41 434v1000h375v-1000q0 -25 17 -42t42 -17h336q25 0 42 17t17 42v1000h375v-1000q0 -180 -127 -307t-307 -127h-336q-180 0 -307 127t-127 307zM311 1686h457l90 -185h-397z" />
<glyph unicode="&#xda;" horiz-adv-x="1286" d="M41 434q0 -180 127 -307t307 -127h336q180 0 307 127t127 307v1000h-375v-1000q0 -25 -17 -42t-42 -17h-336q-25 0 -42 17t-17 42v1000h-375v-1000zM444 1501l91 185h456l-149 -185h-398z" />
<glyph unicode="&#xdb;" horiz-adv-x="1286" d="M41 434q0 -180 127 -307t307 -127h336q180 0 307 127t127 307v1000h-375v-1000q0 -25 -17 -42t-42 -17h-336q-25 0 -42 17t-17 42v1000h-375v-1000zM213 1497l119 150q29 34 86 34h483q53 0 82 -34l119 -150h-395l-50 66h-12l-51 -66h-381z" />
<glyph unicode="&#xdc;" horiz-adv-x="1286" d="M41 434v1000h375v-1000q0 -25 17 -42t42 -17h336q25 0 42 17t17 42v1000h375v-1000q0 -180 -127 -307t-307 -127h-336q-180 0 -307 127t-127 307zM221 1493v182h397v-182h-397zM668 1493v182h397v-182h-397z" />
<glyph unicode="&#xdd;" horiz-adv-x="1282" d="M23 1434h391l149 -529q9 -27 31 -44t46 -20t47 13.5t34 50.5l147 529h392l-173 -613q-62 -223 -258 -309v-512h-374v516q-91 40 -159 117.5t-99 187.5zM434 1491l90 184h457l-150 -184h-397z" />
<glyph unicode="&#xde;" horiz-adv-x="1286" d="M43 0v1434h375v-174h395q180 0 307 -127.5t127 -307.5v-258q0 -180 -127 -307t-307 -127h-336v375h336q25 0 42 17t17 42v258q0 25 -17 42.5t-42 17.5h-395v-885h-375z" />
<glyph unicode="&#xdf;" horiz-adv-x="1234" d="M41 0v1001q0 120 49.5 219t142 157.5t209.5 58.5h273q92 0 172 -35.5t133.5 -92.5t86.5 -131.5t38.5 -149.5t-17.5 -149t-75 -128q63 -40 102.5 -112t49.5 -154.5t-13 -169t-73.5 -156t-143 -114t-211.5 -44.5h-289v375h268q33 0 55.5 16t28 38.5t0 45.5t-28.5 39t-57 16 h-266v375h232q37 0 57 25.5t19.5 55.5t-21 55.5t-55.5 25.5h-232q-25 0 -43 -17t-18 -42v-1008h-373z" />
<glyph unicode="&#xe0;" d="M41 434v338q0 180 127 307t307 127h338q180 0 307 -127t127 -307v-772h-375v772q0 25 -17 42t-42 17h-338q-25 0 -42 -17t-17 -42v-338q0 -25 17 -42t42 -17h338v-375h-338q-180 0 -307 127t-127 307zM303 1444h457l90 -184h-397z" />
<glyph unicode="&#xe1;" d="M41 434v338q0 180 127 307t307 127h338q180 0 307 -127t127 -307v-772h-375v772q0 25 -17 42t-42 17h-338q-25 0 -42 -17t-17 -42v-338q0 -25 17 -42t42 -17h338v-375h-338q-180 0 -307 127t-127 307zM449 1260l90 184h456l-149 -184h-397z" />
<glyph unicode="&#xe2;" d="M41 434v338q0 180 127 307t307 127h338q180 0 307 -127t127 -307v-772h-375v772q0 25 -17 42t-42 17h-338q-25 0 -42 -17t-17 -42v-338q0 -25 17 -42t42 -17h338v-375h-338q-180 0 -307 127t-127 307zM225 1266l119 149q30 35 86 35h483q52 0 82 -35l119 -149h-395 l-49 65h-13l-51 -65h-381z" />
<glyph unicode="&#xe3;" d="M41 434v338q0 180 127 307t307 127h338q180 0 307 -127t127 -307v-772h-375v772q0 25 -17 42t-42 17h-338q-25 0 -42 -17t-17 -42v-338q0 -25 17 -42t42 -17h338v-375h-338q-180 0 -307 127t-127 307zM262 1366q79 55 156 73.5t139 9.5t120.5 -21.5t120.5 -10.5t117 33 h27l82 -94q-68 -62 -134 -89.5t-116 -25t-103.5 13t-97 23t-97 6t-103.5 -38.5h-19z" />
<glyph unicode="&#xe4;" d="M41 434v338q0 180 127 307t307 127h338q180 0 307 -127t127 -307v-772h-375v772q0 25 -17 42t-42 17h-338q-25 0 -42 -17t-17 -42v-338q0 -25 17 -42t42 -17h338v-375h-338q-180 0 -307 127t-127 307zM227 1260v182h398v-182h-398zM674 1260v182h397v-182h-397z" />
<glyph unicode="&#xe5;" d="M41 434v338q0 180 127 307t307 127h338q180 0 307 -127t127 -307v-772h-375v772q0 25 -17 42t-42 17h-338q-25 0 -42 -17t-17 -42v-338q0 -25 17 -42t42 -17h338v-375h-338q-180 0 -307 127t-127 307zM363.5 1339.5q-0.5 34.5 24.5 63.5t71 29h395q45 0 70 -29 t24.5 -63.5t-25.5 -63.5t-69 -29h-395q-44 0 -69.5 29t-26 63.5zM529 1338.5q0 -13.5 12 -13.5h229q13 0 12.5 13.5t-12.5 13.5h-229q-12 0 -12 -13.5z" />
<glyph unicode="&#xe6;" horiz-adv-x="2107" d="M41 434v338q0 180 127 307t307 127h338q72 0 139 -31.5t107 -89.5q38 57 107 89t141 32h335q100 0 190 -37.5t151.5 -105.5t84 -163t-13.5 -210l-82 -258h-375l101 324q9 31 -7.5 53t-48.5 22h-335q-25 0 -42.5 -17t-17.5 -42v-338q0 -25 17.5 -42t42.5 -17h766v-375 h-766q-180 0 -307.5 127t-127.5 307v338q0 25 -17 42t-42 17h-338q-25 0 -42 -17t-17 -42v-338q0 -25 17 -42t42 -17h338v-375h-338q-180 0 -307 127t-127 307z" />
<glyph unicode="&#xe7;" horiz-adv-x="1103" d="M41 434v338q0 180 127.5 307t308.5 127h584v-375h-584q-26 0 -43.5 -17t-17.5 -42v-338q0 -25 17.5 -42t43.5 -17h584v-375h-299l-17 -41q132 -44 103 -162q-14 -55 -66.5 -92t-115.5 -46t-128.5 14.5t-103.5 78.5l41 115q38 -34 67 -19q21 10 14 31q-11 28 -67 25l39 96 h-51q-181 0 -308.5 127t-127.5 307z" />
<glyph unicode="&#xe8;" horiz-adv-x="1273" d="M41 434v338q0 180 127 307t307 127h336q100 0 190 -37.5t151.5 -105.5t84 -163t-13.5 -210l-82 -258h-375l100 324q9 31 -7 53t-48 22h-336q-25 0 -42 -17t-17 -42v-338q0 -25 17 -42t42 -17h766v-375h-766q-180 0 -307 127t-127 307zM340 1448h457l90 -184h-398z" />
<glyph unicode="&#xe9;" horiz-adv-x="1273" d="M41 434q0 -180 127 -307t307 -127h766v375h-766q-25 0 -42 17t-17 42v338q0 25 17 42t42 17h336q32 0 48 -22t7 -53l-100 -324h375l82 258q36 115 13.5 210t-84 163t-151.5 105.5t-190 37.5h-336q-180 0 -307 -127t-127 -307v-338zM444 1264l91 184h456l-149 -184h-398z " />
<glyph unicode="&#xea;" horiz-adv-x="1273" d="M41 434q0 -180 127 -307t307 -127h766v375h-766q-25 0 -42 17t-17 42v338q0 25 17 42t42 17h336q32 0 48 -22t7 -53l-100 -324h375l82 258q36 115 13.5 210t-84 163t-151.5 105.5t-190 37.5h-336q-180 0 -307 -127t-127 -307v-338zM248 1262l119 149q30 35 86 35h483 q52 0 82 -35l119 -149h-396l-49 65h-12l-51 -65h-381z" />
<glyph unicode="&#xeb;" horiz-adv-x="1273" d="M41 434v338q0 180 127 307t307 127h336q100 0 190 -37.5t151.5 -105.5t84 -163t-13.5 -210l-82 -258h-375l100 324q9 31 -7 53t-48 22h-336q-25 0 -42 -17t-17 -42v-338q0 -25 17 -42t42 -17h766v-375h-766q-180 0 -307 127t-127 307zM236 1257v183h397v-183h-397z M682 1257v183h397v-183h-397z" />
<glyph unicode="&#xec;" horiz-adv-x="456" d="M-125 1438h457l90 -185h-397zM41 0v1194h375v-1194h-375z" />
<glyph unicode="&#xed;" horiz-adv-x="456" d="M2 1264l90 184h457l-150 -184h-397zM41 0h375v1198h-375v-1198z" />
<glyph unicode="&#xee;" horiz-adv-x="456" d="M-207 1264l119 149q30 35 86 35h483q52 0 82 -35l119 -149h-395l-49 65h-13l-51 -65h-381zM41 0h375v1198h-375v-1198z" />
<glyph unicode="&#xef;" horiz-adv-x="456" d="M-188 1260v182h397v-182h-397zM41 0v1202h375v-1202h-375zM258 1260v182h397v-182h-397z" />
<glyph unicode="&#xf0;" horiz-adv-x="1212" d="M37 432v55q0 180 127 307.5t307 127.5h270v-375h-270q-25 0 -42 -17.5t-17 -42.5v-55q0 -25 17 -42t42 -17h270q25 0 42.5 17t17.5 42v529q0 15 -3.5 27t-7.5 17l-4 5l-8 8l-69 -57l-136 139l74 59l-256 275h475l49 -58l68 56l133 -142l-72 -57l17 -16q42 -42 67 -77 t34.5 -69.5t11.5 -54.5t2 -58v-14v-512q0 -180 -127.5 -307t-307.5 -127h-270q-180 0 -307 127t-127 307z" />
<glyph unicode="&#xf1;" horiz-adv-x="1286" d="M41 0h375v772q0 25 17 42t42 17h336q25 0 42 -17t17 -42v-772h375v772q0 180 -127 307t-307 127h-336q-180 0 -307 -127t-127 -307v-772zM258 1376q79 55 156 73.5t139 9.5t120.5 -21.5t120.5 -10.5t117 33h27l82 -94q-68 -62 -134 -89.5t-116 -25t-103.5 13t-97 23 t-97 6t-103.5 -38.5h-19z" />
<glyph unicode="&#xf2;" d="M41 434v338q0 180 128 307t308 127h336q180 0 307 -127t127 -307v-338q0 -180 -127 -307t-307 -127h-336q-180 0 -308 127t-128 307zM315 1450h457l90 -184h-397zM416 434q0 -25 18 -42t43 -17h336q25 0 42 17t17 42v338q0 25 -17 42t-42 17h-336q-25 0 -43 -17t-18 -42 v-338z" />
<glyph unicode="&#xf3;" d="M41 434q0 -180 128 -307t308 -127h336q180 0 307 127t127 307v338q0 180 -127 307t-307 127h-336q-180 0 -308 -127t-128 -307v-338zM416 434v338q0 25 18 42t43 17h336q25 0 42 -17t17 -42v-338q0 -25 -17 -42t-42 -17h-336q-25 0 -43 17t-18 42zM426 1272l90 184h457 l-150 -184h-397z" />
<glyph unicode="&#xf4;" d="M41 434q0 -180 128 -307t308 -127h336q180 0 307 127t127 307v338q0 180 -127 307t-307 127h-336q-180 0 -308 -127t-128 -307v-338zM211 1262l119 149q30 35 86 35h483q52 0 82 -35l119 -149h-395l-50 65h-12l-51 -65h-381zM416 434v338q0 25 18 42t43 17h336 q25 0 42 -17t17 -42v-338q0 -25 -17 -42t-42 -17h-336q-25 0 -43 17t-18 42z" />
<glyph unicode="&#xf5;" d="M41 434q0 -180 128 -307t308 -127h336q180 0 307 127t127 307v338q0 180 -127 307t-307 127h-336q-180 0 -308 -127t-128 -307v-338zM260 1374q79 55 156 73.5t139 9.5t120.5 -21.5t120.5 -10.5t117 33h27l82 -94q-68 -62 -134 -89.5t-116 -25t-103.5 13t-97 23t-97 6 t-103.5 -38.5h-19zM416 434v338q0 25 18 42t43 17h336q25 0 42 -17t17 -42v-338q0 -25 -17 -42t-42 -17h-336q-25 0 -43 17t-18 42z" />
<glyph unicode="&#xf6;" d="M41 434v338q0 180 128 307t308 127h336q180 0 307 -127t127 -307v-338q0 -180 -127 -307t-307 -127h-336q-180 0 -308 127t-128 307zM225 1251v183h398v-183h-398zM416 434q0 -25 18 -42t43 -17h336q25 0 42 17t17 42v338q0 25 -17 42t-42 17h-336q-25 0 -43 -17t-18 -42 v-338zM672 1251v183h397v-183h-397z" />
<glyph unicode="&#xf8;" d="M37 -63l110 210q-106 125 -106 287v336q0 180 127 307t307 127h307l33 62h440l-112 -213q104 -120 104 -283v-336q0 -180 -127 -307t-307 -127h-313l-33 -63h-430zM416 434q0 -25 17 -42t42 -17h338q25 0 42 17t17 42v336q0 25 -17 42t-42 17h-338q-25 0 -42 -17t-17 -42 v-336z" />
<glyph unicode="&#xf9;" horiz-adv-x="1286" d="M41 434v772h375v-772q0 -25 17 -42t42 -17h336q25 0 42 17t17 42v772h375v-772q0 -180 -127 -307t-307 -127h-336q-180 0 -307 127t-127 307zM309 1446h457l90 -184h-397z" />
<glyph unicode="&#xfa;" horiz-adv-x="1286" d="M41 434q0 -180 127 -307t307 -127h336q180 0 307 127t127 307v772h-375v-772q0 -25 -17 -42t-42 -17h-336q-25 0 -42 17t-17 42v772h-375v-772zM432 1268l90 184h457l-150 -184h-397z" />
<glyph unicode="&#xfb;" horiz-adv-x="1286" d="M41 434q0 -180 127 -307t307 -127h336q180 0 307 127t127 307v772h-375v-772q0 -25 -17 -42t-42 -17h-336q-25 0 -42 17t-17 42v772h-375v-772zM193 1266l118 149q30 35 86 35h484q52 0 82 -35l118 -149h-395l-49 65h-12l-52 -65h-380z" />
<glyph unicode="&#xfc;" horiz-adv-x="1286" d="M41 434v772h375v-772q0 -25 17 -42t42 -17h336q25 0 42 17t17 42v772h375v-772q0 -180 -127 -307t-307 -127h-336q-180 0 -307 127t-127 307zM221 1255v183h397v-183h-397zM668 1255v183h397v-183h-397z" />
<glyph unicode="&#xfd;" horiz-adv-x="1294" d="M16 1206h390l241 -790q6 -19 21 -30t34 -11h177v831h374v-1435h-374v233q-40 -4 -62 -4h-115q-150 0 -264.5 96t-158.5 244zM436 1268l90 184h457l-149 -184h-398z" />
<glyph unicode="&#xfe;" horiz-adv-x="1286" d="M41 -229v1663h375v-228h397q180 0 307 -127t127 -307v-338q0 -180 -127 -307t-307 -127h-338v375h338q25 0 42 17t17 42v338q0 25 -17 42t-42 17h-397v-1060h-375z" />
<glyph unicode="&#xff;" horiz-adv-x="1294" d="M16 1206h390l241 -790q6 -19 21 -30t34 -11h177v831h374v-1435h-374v233q-40 -4 -62 -4h-115q-150 0 -264.5 96t-158.5 244zM244 1270v182h397v-182h-397zM690 1270v182h397v-182h-397z" />
<glyph unicode="&#x152;" horiz-adv-x="1933" d="M41 434v565q0 180 127 307.5t307 127.5h338q73 0 140.5 -27.5t105.5 -81.5q38 49 108 80t140 31h583v-375h-583q-23 0 -40 -15t-20 -38v-9v-94h643v-375h-643v-96v-8q3 -22 20 -36.5t40 -14.5h583v-375h-583q-71 0 -138 30t-110 85q-36 -56 -104 -85.5t-142 -29.5h-338 q-180 0 -307 127t-127 307zM416 434q0 -25 17 -42t42 -17h338q23 0 39.5 14.5t19.5 36.5v8v565v2v5q-3 23 -19.5 38t-39.5 15h-338q-25 0 -42 -17.5t-17 -42.5v-565z" />
<glyph unicode="&#x153;" horiz-adv-x="2105" d="M41 434v338q0 180 128 307t308 127h336q74 0 144 -32t102 -89q37 54 107 87.5t141 33.5h335q100 0 190 -37.5t151.5 -105.5t84 -163t-13.5 -210l-82 -258h-375l101 324q9 31 -7.5 53t-48.5 22h-335q-25 0 -42.5 -17t-17.5 -42v-338v-8q3 -22 20 -36.5t40 -14.5h766v-375 h-766q-68 0 -134 31t-114 84q-39 -52 -107.5 -83.5t-138.5 -31.5h-336q-180 0 -308 127t-128 307zM416 434q0 -25 18 -42t43 -17h336q25 0 42 17t17 42v338v6q-3 23 -19.5 38t-39.5 15h-336q-25 0 -43 -17t-18 -42v-338z" />
<glyph unicode="&#x178;" horiz-adv-x="1282" d="M23 1434h391l149 -529q9 -27 31 -44t46 -20t47 13.5t34 50.5l147 529h392l-173 -613q-62 -223 -258 -309v-512h-374v516q-91 40 -159 117.5t-99 187.5zM213 1487v182h397v-182h-397zM659 1487v182h398v-182h-398z" />
<glyph unicode="&#x2c6;" horiz-adv-x="942" d="M23 1405l118 149q30 35 86 35h484q52 0 82 -35l118 -149h-395l-49 65h-12l-52 -65h-380z" />
<glyph unicode="&#x2dc;" horiz-adv-x="823" d="M37 1368q79 55 156 73.5t139 9.5t120.5 -21.5t120.5 -10.5t117 33h27l82 -94q-68 -62 -134 -89.5t-116 -25t-103.5 13t-97.5 23t-97.5 6t-103.5 -38.5h-18z" />
<glyph unicode="&#x2000;" horiz-adv-x="861" />
<glyph unicode="&#x2001;" horiz-adv-x="1723" />
<glyph unicode="&#x2002;" horiz-adv-x="861" />
<glyph unicode="&#x2003;" horiz-adv-x="1723" />
<glyph unicode="&#x2004;" horiz-adv-x="574" />
<glyph unicode="&#x2005;" horiz-adv-x="430" />
<glyph unicode="&#x2006;" horiz-adv-x="287" />
<glyph unicode="&#x2007;" horiz-adv-x="287" />
<glyph unicode="&#x2008;" horiz-adv-x="215" />
<glyph unicode="&#x2009;" horiz-adv-x="344" />
<glyph unicode="&#x200a;" horiz-adv-x="95" />
<glyph unicode="&#x2010;" horiz-adv-x="552" d="M41 475v338h473v-338h-473z" />
<glyph unicode="&#x2011;" horiz-adv-x="552" d="M41 475v338h473v-338h-473z" />
<glyph unicode="&#x2012;" horiz-adv-x="552" d="M41 475v338h473v-338h-473z" />
<glyph unicode="&#x2013;" horiz-adv-x="1103" d="M41 475v338h1024v-338h-1024z" />
<glyph unicode="&#x2014;" horiz-adv-x="2127" d="M41 475v338h2048v-338h-2048z" />
<glyph unicode="&#x2018;" horiz-adv-x="507" d="M39 750v319q0 62 8.5 115t28.5 102t53 82.5t81 57.5t112.5 27.5t148.5 -7.5l-2 -316q-36 0 -55 -14t-19 -49v-317h-356z" />
<glyph unicode="&#x2019;" horiz-adv-x="499" d="M35 737l2 316q36 0 55 14t19 49v318h356v-320q0 -62 -8.5 -115t-28.5 -102t-53 -82.5t-81 -57.5t-112.5 -27.5t-148.5 7.5z" />
<glyph unicode="&#x201a;" horiz-adv-x="444" d="M-27 -387l2 315q74 0 74 64v317h357v-319q0 -76 -13 -137t-43 -115.5t-79.5 -85t-123.5 -44.5t-174 5z" />
<glyph unicode="&#x201c;" horiz-adv-x="989" d="M39 750v319q0 62 8.5 115t28.5 102t53 82.5t81 57.5t112.5 27.5t148.5 -7.5l-2 -316q-36 0 -55 -14t-19 -49v-317h-356zM518 750v319q0 62 8.5 115t28.5 102t53 82.5t81 57.5t112.5 27.5t148.5 -7.5l-2 -316q-36 0 -55 -14t-19 -49v-317h-356z" />
<glyph unicode="&#x201d;" horiz-adv-x="993" d="M37 741l2 316q36 0 55 14t19 49v318h356v-320q0 -62 -8.5 -115t-28.5 -102t-53 -82.5t-81 -57.5t-112.5 -27.5t-148.5 7.5zM516 741l2 316q36 0 55 14t19 49v318h356v-320q0 -62 -8.5 -115t-28.5 -102t-53 -82.5t-81 -57.5t-112.5 -27.5t-148.5 7.5z" />
<glyph unicode="&#x201e;" horiz-adv-x="927" d="M-23 -387l3 315q73 0 73 64v317h357v-319q0 -76 -13 -137t-43 -115.5t-79.5 -85t-123.5 -44.5t-174 5zM446 -387l3 315q73 0 73 64v317h357v-319q0 -76 -13 -137t-43 -115.5t-79.5 -85t-123.5 -44.5t-174 5z" />
<glyph unicode="&#x2026;" horiz-adv-x="1382" d="M39 -2v309h381v-309h-381zM500 -2v309h381v-309h-381zM961 -2v309h380v-309h-380z" />
<glyph unicode="&#x202f;" horiz-adv-x="344" />
<glyph unicode="&#x205f;" horiz-adv-x="430" />
<glyph unicode="&#x20ac;" horiz-adv-x="1148" d="M14 463v229h74v51h-74v228h74v30q0 180 127 307.5t307 127.5h584v-375h-584q-25 0 -42 -17.5t-17 -42.5v-30h225v-228h-225v-51h225v-229h-225v-29q0 -25 17 -42t42 -17h584v-375h-584q-180 0 -307 127t-127 307v29h-74z" />
<glyph unicode="&#x25fc;" horiz-adv-x="1208" d="M0 0v1208h1208v-1208h-1208z" />
</font>
</defs>
</svg>
